<?xml version="1.0" standalone="no"?><!DOCTYPE svg PUBLIC "-//W3C//DTD SVG 1.1//EN" "http://www.w3.org/Graphics/SVG/1.1/DTD/svg11.dtd"><svg t="1486532844487" class="icon" style="" viewBox="0 0 1024 1024" version="1.1" xmlns="http://www.w3.org/2000/svg" p-id="1438" xmlns:xlink="http://www.w3.org/1999/xlink" width="200" height="200"><defs><style type="text/css"></style></defs><path d="M669.929404 945.349709l-259.919775-166.94115-259.919774 166.94115V70.784136h519.839549v66.627467h-16.372899v-50.254567h-487.093751v828.216964l243.546875-156.424632 243.546876 156.424632V610.155531h16.372899z" fill="" p-id="1439"></path><path d="M493.007949 578.62235V335.246367h-43.276643v-28.317952h76.048024v218.729653c10.79588-6.933923 35.337833-27.131941 45.112453-44.331671v44.058448c-20.824281 19.591197-39.963177 37.31793-77.883834 53.237505z m2.617617-306.573327c-7.343245-36.715203-18.35709-67.292616-33.043581-91.78852h29.100782c15.889899 26.934442 28.138874 57.539484 36.715203 91.78852h-32.772404z m93.624331 110.145609V191.275371h264.35069v126.667911c1.204431 44.058448-20.825304 65.485457-66.088184 64.252373H738.728326v39.60502h135.066185v26.482141h-53.236481c4.876054 42.852994 24.467251 77.732385 58.743915 104.638176v31.207769c-47.348378-24.886807-82.337263-74.635861-89.680508-135.845945H738.728326v150.532435h-36.44198V448.282816h-50.892087c-8.577353 63.649646-45.088918 108.307751-89.680509 135.845945v-31.207769c33.04358-24.467251 52.606125-59.346643 58.743916-104.638176H572.727595v-26.482141h129.557728v-39.60502H589.249897z m29.099758-164.43712v55.736419h83.936691v-55.736419h-83.936691z m0 127.721917h83.936691v-47.339168h-83.936691v47.339168zM824.501852 217.757512h-85.773526v55.736419h85.772502v-55.736419z m-27.538193 127.721917c19.562545 1.234107 28.741601-8.547677 27.537169-29.371958v-17.96721H738.728326v47.339168h58.235333z" fill="" p-id="1440"></path></svg>